<?xml version="1.0" standalone="no"?>
<!DOCTYPE svg PUBLIC "-//W3C//DTD SVG 20010904//EN"
 "http://www.w3.org/TR/2001/REC-SVG-20010904/DTD/svg10.dtd">
<svg version="1.0" xmlns="http://www.w3.org/2000/svg"
 width="860.000000pt" height="860.000000pt" viewBox="0 0 860.000000 860.000000"
 preserveAspectRatio="xMidYMid meet">
<metadata>
Created by potrace 1.11, written by Peter Selinger 2001-2013
</metadata>
<g transform="translate(0.000000,860.000000) scale(0.100000,-0.100000)"
fill="#000000" stroke="none">
<path d="M0 4300 l0 -4300 4300 0 4300 0 0 4300 0 4300 -4300 0 -4300 0 0
-4300z m5370 2995 l0 -1005 -1025 0 -1025 0 0 1005 0 1005 1025 0 1025 0 0
-1005z m-3022 -42 l-3 -828 -825 0 -825 0 -3 828 -2 827 830 0 830 0 -2 -827z
m5740 5 l-3 -823 -837 -3 -838 -2 0 825 0 825 840 0 840 0 -2 -822z m-2628
-2943 l0 -1145 -1145 0 -1145 0 0 1145 0 1145 1145 0 1145 0 0 -1145z m2848
38 l-3 -1058 -1075 0 -1075 0 -3 1058 -2 1057 1080 0 1080 0 -2 -1057z m-5928
7 l0 -1040 -1040 0 -1040 0 0 1040 0 1040 1040 0 1040 0 0 -1040z m3010 -3035
l0 -1035 -1030 0 -1030 0 0 1035 0 1035 1030 0 1030 0 0 -1035z m2700 145 l0
-880 -865 0 -865 0 0 873 c0 481 3 877 7 880 3 4 393 7 865 7 l858 0 0 -880z
m-5720 -125 l0 -815 -835 0 -835 0 0 815 0 815 835 0 835 0 0 -815z"/>
</g>
</svg>
